<?xml version="1.0" encoding="utf-8"?>
<!-- Generator: Adobe Illustrator 15.0.0, SVG Export Plug-In . SVG Version: 6.00 Build 0)  -->
<!DOCTYPE svg PUBLIC "-//W3C//DTD SVG 1.1//EN" "http://www.w3.org/Graphics/SVG/1.1/DTD/svg11.dtd">
<svg version="1.1" id="svg2" xmlns:svg="http://www.w3.org/2000/svg"
	 xmlns="http://www.w3.org/2000/svg" xmlns:xlink="http://www.w3.org/1999/xlink" x="0px" y="0px" width="450px" height="313.946px"
	 viewBox="-118.908 -82.958 450 313.946" enable-background="new -118.908 -82.958 450 313.946" xml:space="preserve">
<rect id="connector30pin" x="25.067" y="-73.352" width="5.809" height="5.806"/>
<rect id="connector31pin" x="40.096" y="-73.352" width="5.809" height="5.806"/>
<rect id="connector0pin" x="55.123" y="-73.352" width="5.809" height="5.806"/>
<rect id="connector1pin" x="70.153" y="-73.352" width="5.803" height="5.806"/>
<rect id="connector2pin" x="85.182" y="-73.352" width="5.803" height="5.806"/>
<rect id="connector3pin" x="100.209" y="-73.352" width="5.809" height="5.806"/>
<rect id="connector4pin" x="115.24" y="-73.352" width="5.808" height="5.806"/>
<rect id="connector5pin" x="130.267" y="-73.352" width="5.804" height="5.806"/>
<rect id="connector6pin" x="145.298" y="-73.352" width="5.806" height="5.806"/>
<rect id="connector7pin" x="160.327" y="-73.352" width="5.808" height="5.806"/>
<rect id="connector8pin" x="190.784" y="-73.352" width="5.805" height="5.806"/>
<rect id="connector9pin" x="205.814" y="-73.352" width="5.805" height="5.806"/>
<rect id="connector10pin" x="220.841" y="-73.352" width="5.803" height="5.806"/>
<rect id="connector11pin" x="235.869" y="-73.352" width="5.806" height="5.806"/>
<rect id="connector12pin" x="250.897" y="-73.352" width="5.81" height="5.806"/>
<rect id="connector13pin" x="265.926" y="-73.352" width="5.803" height="5.806"/>
<rect id="connector14pin" x="280.954" y="-73.352" width="5.802" height="5.806"/>
<rect id="connector15pin" x="295.984" y="-73.352" width="5.811" height="5.806"/>
<rect id="connector28pin" x="85.266" y="213.04" width="5.807" height="5.804"/>
<rect id="connector29pin" x="100.342" y="213.04" width="5.807" height="5.804"/>
<rect id="connector16pin" x="115.416" y="213.04" width="5.809" height="5.804"/>
<rect id="connector17pin" x="130.49" y="213.04" width="5.81" height="5.804"/>
<rect id="connector18pin" x="145.563" y="213.04" width="5.805" height="5.804"/>
<rect id="connector19pin" x="160.591" y="213.04" width="5.805" height="5.804"/>
<rect id="connector20pin" x="175.62" y="213.04" width="5.81" height="5.804"/>
<rect id="connector21pin" x="190.647" y="213.04" width="5.806" height="5.804"/>
<rect id="connector22pin" x="220.93" y="213.04" width="5.802" height="5.804"/>
<rect id="connector23pin" x="235.957" y="213.04" width="5.808" height="5.804"/>
<rect id="connector24pin" x="250.987" y="213.04" width="5.808" height="5.804"/>
<rect id="connector25pin" x="266.016" y="213.04" width="5.804" height="5.804"/>
<rect id="connector26pin" x="281.043" y="213.04" width="5.803" height="5.804"/>
<rect id="connector27pin" x="296.073" y="213.04" width="5.803" height="5.804"/>
<g id="breadboardbreadboard">
	<g>
		<g>
			<path fill="#0F7391" d="M313.359-6.75v-67.473l-8.345-7.734H-70.391V228h383.754V217.46l14.498-14.938V7.045L313.359-6.75z
				 M10.171-59.197c-5.286,0-9.578-4.291-9.578-9.578s4.292-9.577,9.578-9.577c5.288,0,9.578,4.29,9.578,9.577
				S15.459-59.197,10.171-59.197z M313.886,13.98c3.396,0,6.15,2.758,6.15,6.152c0,3.398-2.75,6.147-6.15,6.147
				s-6.15-2.75-6.15-6.147C307.736,16.741,310.488,13.98,313.886,13.98z M314.937,191.807c-4.943,0-8.954-4.012-8.954-8.95
				c0-4.957,4.011-8.965,8.954-8.965c4.953,0,8.954,4.008,8.954,8.965C323.897,187.795,319.89,191.807,314.937,191.807z"/>
			<circle fill="#0F7391" cx="-2.282" cy="217.362" r="6.699"/>
		</g>
	</g>
	<path fill="#02809E" d="M92.234,62.045c0-2.102-1.542-3.834-3.554-4.154V57.83H74.316c-2.325,0-4.216,1.888-4.216,4.217
		s1.888,4.22,4.216,4.22H88.68v-0.067C90.688,65.879,92.234,64.151,92.234,62.045z"/>
	<path fill="#02809E" d="M92.234,49.372c0-2.101-1.542-3.83-3.554-4.15v-0.065H74.316c-2.325,0-4.216,1.891-4.216,4.217
		c0,2.332,1.888,4.218,4.216,4.218H88.68v-0.064C90.688,53.208,92.234,51.474,92.234,49.372z"/>
	<path fill="#02809E" d="M92.234,36.699c0-2.104-1.542-3.834-3.554-4.154V32.48H74.316c-2.325,0-4.216,1.891-4.216,4.219
		c0,2.329,1.888,4.218,4.216,4.218H88.68v-0.065C90.688,40.531,92.234,38.801,92.234,36.699z"/>
	<path fill="#02809E" d="M149.728,51.797c0-2.104-1.542-3.832-3.559-4.149v-0.064h-14.36c-2.322,0-4.218,1.884-4.218,4.214
		c0,2.332,1.889,4.218,4.218,4.218h14.36V55.95C148.179,55.631,149.728,53.902,149.728,51.797z"/>
	<path fill="#02809E" d="M70.347,77.013c0-6.352-4.668-11.578-10.748-12.541v-0.197H22.91c-7.032,0-12.735,5.701-12.735,12.738
		c0,7.033,5.703,12.734,12.735,12.734h36.689v-0.195C65.68,88.586,70.347,83.36,70.347,77.013z"/>
	<path fill="#02809E" d="M180.297,51.797c0-2.104-1.54-3.832-3.552-4.149v-0.064h-14.361c-2.326,0-4.22,1.884-4.22,4.214
		c0,2.332,1.888,4.218,4.22,4.218h14.361V55.95C178.752,55.631,180.297,53.902,180.297,51.797z"/>
	<path fill="#02809E" d="M216.849,51.797c0-2.104-1.54-3.832-3.552-4.149v-0.064h-14.36c-2.331,0-4.223,1.884-4.223,4.214
		c0,2.332,1.886,4.218,4.223,4.218h14.358V55.95C215.305,55.631,216.849,53.902,216.849,51.797z"/>
	<path fill="#02809E" d="M216.849,68.002c0-2.104-1.54-3.834-3.552-4.153v-0.064h-14.36c-2.331,0-4.223,1.887-4.223,4.217
		c0,2.33,1.886,4.216,4.223,4.216h14.358v-0.064C215.305,71.836,216.849,70.107,216.849,68.002z"/>
	<path fill="#02809E" d="M216.849,84.205c0-2.104-1.54-3.834-3.552-4.148v-0.062h-14.36c-2.331,0-4.223,1.881-4.223,4.216
		s1.886,4.225,4.223,4.225h14.358v-0.078C215.305,88.039,216.849,86.308,216.849,84.205z"/>
	<path fill="#02809E" d="M-44.392-75.538c0-2.103-1.537-3.834-3.553-4.15v-0.064h-14.361c-2.323,0-4.218,1.886-4.218,4.216
		s1.89,4.217,4.218,4.217h14.361v-0.066C-45.936-71.704-44.392-73.436-44.392-75.538z"/>
	<path fill="#02809E" d="M-44.392-49.413c0-2.102-1.537-3.832-3.553-4.149v-0.061h-14.361c-2.323,0-4.218,1.884-4.218,4.212
		c0,2.331,1.89,4.226,4.218,4.226h14.361v-0.067C-45.936-45.577-44.392-47.311-44.392-49.413z"/>
	<path fill="#02809E" d="M-36.493-75.538c0-2.103,1.538-3.834,3.554-4.15v-0.064h14.356c2.327,0,4.218,1.886,4.218,4.216
		s-1.885,4.217-4.218,4.217h-14.356v-0.066C-34.951-71.704-36.493-73.436-36.493-75.538z"/>
	<path fill="#02809E" d="M-36.493-49.413c0-2.102,1.538-3.832,3.554-4.149v-0.061h14.356c2.327,0,4.218,1.884,4.218,4.212
		c0,2.331-1.885,4.226-4.218,4.226h-14.356v-0.067C-34.951-45.577-36.493-47.311-36.493-49.413z"/>
	<path fill="#02809E" d="M92.234,87.392c0-2.102-1.542-3.827-3.554-4.146V83.18H74.316c-2.325,0-4.216,1.886-4.216,4.216
		c0,2.335,1.888,4.227,4.216,4.227H88.68v-0.067C90.688,91.229,92.234,89.502,92.234,87.392z"/>
	<path fill="#02809E" d="M92.234-26.678c0-2.103-1.542-3.83-3.554-4.148v-0.068H74.316c-2.325,0-4.216,1.886-4.216,4.216
		s1.888,4.222,4.216,4.222H88.68v-0.072C90.688-22.846,92.234-24.571,92.234-26.678z"/>
	<path fill="#02809E" d="M14.815-7.833c0-2.102-1.538-3.83-3.55-4.147v-0.067H-3.099c-2.33,0-4.219,1.887-4.219,4.214
		c0,2.33,1.885,4.224,4.219,4.224h14.362v-0.071C13.271-4,14.815-5.724,14.815-7.833z"/>
	<path fill="#02809E" d="M48.899-36.101c0-2.102-1.544-3.83-3.556-4.147v-0.067H30.985c-2.329,0-4.222,1.887-4.222,4.214
		c0,2.33,1.889,4.224,4.222,4.224h14.358v-0.071C47.353-32.267,48.899-33.991,48.899-36.101z"/>
	<path fill="#02809E" d="M92.234-1.328c0-2.102-1.542-3.829-3.554-4.15v-0.064H74.316c-2.325,0-4.216,1.886-4.216,4.216
		c0,2.331,1.888,4.219,4.216,4.219H88.68V2.829C90.688,2.504,92.234,0.777,92.234-1.328z"/>
	<path fill="#02809E" d="M42,128.832c0-2.102-1.54-3.832-3.554-4.146v-0.069h-14.36c-2.331,0-4.22,1.89-4.22,4.216
		c0,2.331,1.885,4.227,4.22,4.227h14.358v-0.063C40.456,132.664,42,130.933,42,128.832z"/>
	<path fill="#02809E" d="M42,111.498c0-2.104-1.54-3.829-3.554-4.148v-0.065h-14.36c-2.331,0-4.22,1.886-4.22,4.221
		c0,2.336,1.885,4.225,4.22,4.225h14.358v-0.065C40.456,115.333,42,113.603,42,111.498z"/>
	<path fill="#02809E" d="M231.925,16.866c0,2.105,1.54,3.836,3.559,4.155v0.06h14.357c2.326,0,4.222-1.884,4.222-4.215
		c0-2.326-1.89-4.216-4.222-4.216h-14.357v0.064C233.473,13.035,231.925,14.766,231.925,16.866z"/>
	<path fill="#02809E" d="M0.521,115.406c0-2.102-1.539-3.837-3.553-4.15v-0.069h-14.363c-2.333,0-4.22,1.887-4.22,4.229
		c0,2.318,1.883,4.216,4.22,4.216h14.36v-0.062C-1.024,119.237,0.521,117.507,0.521,115.406z"/>
	<path fill="#02809E" d="M0.521,129.114c0-2.106-1.539-3.831-3.553-4.155v-0.061h-14.363c-2.333,0-4.22,1.881-4.22,4.222
		c0,2.317,1.883,4.217,4.22,4.217h14.36v-0.06C-1.024,132.938,0.521,131.214,0.521,129.114z"/>
	<path fill="#02809E" d="M0.521,142.819c0-2.105-1.539-3.833-3.553-4.152v-0.065h-14.363c-2.333,0-4.22,1.89-4.22,4.224
		c0,2.333,1.883,4.222,4.22,4.222h14.36v-0.064C-1.024,146.652,0.521,144.924,0.521,142.819z"/>
	<rect x="-55.356" y="108.163" fill="#02809E" width="42.521" height="40.418"/>
	<rect x="-62.736" y="113.083" fill="#02809E" width="10.545" height="30.573"/>
	<circle fill="#02809E" cx="38.73" cy="-69.231" r="3.689"/>
	<g>
		<g>
			<path fill="#02809E" d="M38.73-78.539c-5.145,0-9.312,4.169-9.312,9.31c0,5.147,4.167,9.311,9.312,9.311
				c5.143,0,9.314-4.166,9.314-9.311C48.042-74.372,43.873-78.539,38.73-78.539z M38.73-60.885c-4.608,0-8.345-3.738-8.345-8.346
				c0-4.609,3.738-8.347,8.345-8.347c4.611,0,8.345,3.737,8.345,8.347S43.34-60.885,38.73-60.885z"/>
		</g>
	</g>
	<circle fill="#02809E" cx="-57.284" cy="214.109" r="3.69"/>
	<g>
		<g>
			<path fill="#02809E" d="M-57.282,204.799c-5.144,0-9.318,4.172-9.318,9.312c0,5.144,4.174,9.312,9.318,9.312
				c5.139,0,9.312-4.168,9.312-9.312C-47.97,208.971-52.14,204.799-57.282,204.799z M-57.282,222.454
				c-4.615,0-8.349-3.733-8.349-8.342c0-4.609,3.738-8.348,8.349-8.348c4.609,0,8.343,3.736,8.343,8.348
				C-48.938,218.72-52.673,222.454-57.282,222.454z"/>
		</g>
	</g>
	<circle fill="#02809E" cx="294.612" cy="-15.882" r="3.689"/>
	<g>
		<g>
			<path fill="#02809E" d="M294.614-25.197c-5.142,0-9.313,4.173-9.313,9.315c0,5.141,4.172,9.305,9.313,9.305
				c5.138,0,9.315-4.167,9.315-9.305C303.927-21.024,299.755-25.197,294.614-25.197z M294.614-7.54c-4.614,0-8.34-3.738-8.34-8.342
				c0-4.615,3.738-8.349,8.34-8.349c4.608,0,8.339,3.736,8.339,8.349C302.952-11.275,299.222-7.54,294.614-7.54z"/>
		</g>
	</g>
	<circle fill="#02809E" cx="-54.477" cy="-29.942" r="8.962"/>
	<circle fill="#02809E" cx="-54.477" cy="42.801" r="8.961"/>
	<rect x="28.915" y="203.503" fill="#02809E" width="36.722" height="16.697"/>
	<rect x="175.802" y="-12.171" fill="#02809E" width="33.839" height="19.572"/>
	<rect x="93.997" y="111.77" fill="#02809E" width="202.771" height="44.981"/>
	<circle fill="#02809E" cx="-7.825" cy="181.7" r="11.861"/>
	<circle fill="#02809E" cx="-23.288" cy="210.517" r="11.86"/>
	<path fill="#02809E" d="M47.116,188.799c0.904-2.336,1.413-4.856,1.413-7.506c0-11.499-9.324-20.816-20.818-20.816
		s-20.82,9.319-20.82,20.816c0,5.39,2.065,10.286,5.431,13.981L47.116,188.799z"/>
	<path fill="#02809E" d="M95.716,188.799c0.904-2.336,1.411-4.856,1.411-7.506c0-11.499-9.324-20.816-20.815-20.816
		c-11.502,0-20.816,9.319-20.816,20.816c0,5.39,2.062,10.286,5.427,13.981L95.716,188.799z"/>
	<path fill="#8D8C8C" d="M92.234,11.347c0-2.103-1.542-3.83-3.554-4.15V7.132H74.316c-2.325,0-4.216,1.887-4.216,4.215
		c0,2.328,1.888,4.219,4.216,4.219H88.68v-0.067C90.688,15.181,92.234,13.453,92.234,11.347z"/>
	<rect x="77.477" y="7.921" fill="#FBBE0E" width="7.638" height="6.721"/>
	<path fill="#8D8C8C" d="M92.234-14.001c0-2.103-1.542-3.83-3.554-4.15v-0.065H74.316c-2.325,0-4.216,1.886-4.216,4.217
		c0,2.33,1.888,4.219,4.216,4.219H88.68v-0.068C90.688-10.167,92.234-11.897,92.234-14.001z"/>
	<rect x="77.477" y="-17.427" fill="#FBBE0E" width="7.638" height="6.721"/>
	<path fill="#8D8C8C" d="M280.996,16.866c0-2.102-1.54-3.831-3.552-4.148v-0.066h-14.362c-2.329,0-4.218,1.887-4.218,4.217
		c0,2.328,1.883,4.219,4.218,4.219h14.362v-0.066C279.448,20.695,280.996,18.967,280.996,16.866z"/>
	<rect x="266.237" y="13.44" fill="#FBBE0E" width="7.64" height="6.721"/>
	<path fill="#8D8C8C" d="M92.234,24.023c0-2.103-1.542-3.832-3.554-4.153v-0.064H74.316c-2.325,0-4.216,1.891-4.216,4.217
		c0,2.33,1.888,4.218,4.216,4.218H88.68v-0.066C90.688,27.856,92.234,26.127,92.234,24.023z"/>
	<rect x="77.477" y="20.596" fill="#FBBE0E" width="7.638" height="6.721"/>
	<rect x="-57.18" y="-80.395" fill="#8D8C8C" width="34.788" height="35.576"/>
	<path fill="#404040" d="M-23.177-75.392c0,1.749-1.419,3.168-3.173,3.168c-1.746,0-3.166-1.413-3.166-3.168
		c0-1.741,1.413-3.167,3.166-3.167C-24.594-78.553-23.177-77.131-23.177-75.392z"/>
	<path fill="#404040" d="M-49.798-75.392c0,1.749-1.419,3.168-3.17,3.168c-1.752,0-3.167-1.413-3.167-3.168
		c0-1.741,1.413-3.167,3.167-3.167C-51.216-78.553-49.798-77.131-49.798-75.392z"/>
	<circle fill="#404040" cx="-52.964" cy="-48.768" r="3.164"/>
	<circle fill="#404040" cx="-26.341" cy="-48.768" r="3.164"/>
	<circle fill="#404040" cx="-40.444" cy="-62.606" r="10.279"/>
	<polygon fill="#404040" points="318.376,43.213 310.141,43.213 303.145,43.213 294.91,43.213 291.749,46.373 291.749,54.61 
		294.91,57.77 303.145,57.77 310.141,57.77 318.376,57.77 321.539,54.61 321.539,46.373 	"/>
	<polygon fill="#404040" points="318.376,58.249 310.141,58.249 303.145,58.249 294.91,58.249 291.749,61.411 291.749,69.644 
		294.91,72.81 303.145,72.81 310.141,72.81 318.376,72.81 321.539,69.644 321.539,61.411 	"/>
	<polygon fill="#404040" points="318.376,73.281 310.141,73.281 303.145,73.281 294.91,73.281 291.749,76.444 291.749,84.681 
		294.91,87.842 303.145,87.842 310.141,87.842 318.376,87.842 321.539,84.681 321.539,76.444 	"/>
	<polygon fill="#404040" points="318.376,43.213 310.141,43.213 303.145,43.213 294.91,43.213 291.749,46.373 291.749,54.61 
		294.91,57.77 303.145,57.77 310.141,57.77 318.376,57.77 321.539,54.61 321.539,46.373 	"/>
	<polygon fill="#404040" points="318.376,58.249 310.141,58.249 303.145,58.249 294.91,58.249 291.749,61.411 291.749,69.644 
		294.91,72.81 303.145,72.81 310.141,72.81 318.376,72.81 321.539,69.644 321.539,61.411 	"/>
	<polygon fill="#404040" points="318.376,73.281 310.141,73.281 303.145,73.281 294.91,73.281 291.749,76.444 291.749,84.681 
		294.91,87.842 303.145,87.842 310.141,87.842 318.376,87.842 321.539,84.681 321.539,76.444 	"/>
	<rect x="296.79" y="77.876" fill="#8D8C8C" width="4.811" height="4.812"/>
	<rect x="311.865" y="77.876" fill="#8D8C8C" width="4.81" height="4.812"/>
	<rect x="296.79" y="62.803" fill="#8D8C8C" width="4.811" height="4.812"/>
	<rect x="311.865" y="62.803" fill="#8D8C8C" width="4.81" height="4.812"/>
	<rect x="296.79" y="47.73" fill="#8D8C8C" width="4.811" height="4.811"/>
	<rect x="311.865" y="47.73" fill="#8D8455" width="4.81" height="4.811"/>
	<rect x="313.035" y="48.898" fill="#8C8663" width="2.475" height="2.474"/>
	<polygon fill="#B8AF82" points="311.865,47.73 313.035,48.898 315.504,48.898 316.676,47.73 	"/>
	<polygon fill="#80795B" points="315.504,51.373 315.504,48.898 316.676,47.73 316.676,52.541 	"/>
	<polygon fill="#5E5B43" points="313.035,51.373 315.504,51.373 316.676,52.541 311.865,52.541 	"/>
	<polygon fill="#9A916C" points="311.865,47.73 313.035,48.898 313.035,51.373 311.865,52.541 	"/>
	<rect x="297.961" y="48.898" fill="#8C8663" width="2.475" height="2.474"/>
	<polygon fill="#B8AF82" points="296.79,47.73 297.961,48.898 300.432,48.898 301.601,47.73 	"/>
	<polygon fill="#80795B" points="300.432,51.373 300.432,48.898 301.601,47.73 301.601,52.541 	"/>
	<polygon fill="#5E5B43" points="297.961,51.373 300.432,51.373 301.601,52.541 296.79,52.541 	"/>
	<polygon fill="#9A916C" points="296.79,47.73 297.961,48.898 297.961,51.373 296.79,52.541 	"/>
	<rect x="313.035" y="63.969" fill="#8C8663" width="2.475" height="2.475"/>
	<polygon fill="#B8AF82" points="311.865,62.803 313.035,63.969 315.504,63.969 316.676,62.803 	"/>
	<polygon fill="#80795B" points="315.504,66.444 315.504,63.969 316.676,62.803 316.676,67.615 	"/>
	<polygon fill="#5E5B43" points="313.035,66.444 315.504,66.444 316.676,67.615 311.865,67.615 	"/>
	<polygon fill="#9A916C" points="311.865,62.803 313.035,63.969 313.035,66.444 311.865,67.615 	"/>
	<rect x="297.961" y="63.969" fill="#8C8663" width="2.475" height="2.475"/>
	<polygon fill="#B8AF82" points="296.79,62.803 297.961,63.969 300.432,63.969 301.601,62.803 	"/>
	<polygon fill="#80795B" points="300.432,66.444 300.432,63.969 301.601,62.803 301.601,67.615 	"/>
	<polygon fill="#5E5B43" points="297.961,66.444 300.432,66.444 301.601,67.615 296.79,67.615 	"/>
	<polygon fill="#9A916C" points="296.79,62.803 297.961,63.969 297.961,66.444 296.79,67.615 	"/>
	<rect x="313.035" y="79.043" fill="#8C8663" width="2.475" height="2.476"/>
	<polygon fill="#B8AF82" points="311.865,77.876 313.035,79.043 315.504,79.043 316.676,77.876 	"/>
	<polygon fill="#80795B" points="315.504,81.519 315.504,79.043 316.676,77.876 316.676,82.689 	"/>
	<polygon fill="#5E5B43" points="313.035,81.519 315.504,81.519 316.676,82.689 311.865,82.689 	"/>
	<polygon fill="#9A916C" points="311.865,77.876 313.035,79.043 313.035,81.519 311.865,82.689 	"/>
	<rect x="297.961" y="79.043" fill="#8C8663" width="2.475" height="2.476"/>
	<polygon fill="#B8AF82" points="296.79,77.876 297.961,79.043 300.432,79.043 301.601,77.876 	"/>
	<polygon fill="#80795B" points="300.432,81.519 300.432,79.043 301.601,77.876 301.601,82.689 	"/>
	<polygon fill="#5E5B43" points="297.961,81.519 300.432,81.519 301.601,82.689 296.79,82.689 	"/>
	<polygon fill="#9A916C" points="296.79,77.876 297.961,79.043 297.961,81.519 296.79,82.689 	"/>
	<rect x="-117.908" y="-28.8" fill="#676666" width="79.417" height="70.985"/>
	<rect x="-38.489" y="-28.8" fill="#676666" width="16.869" height="70.985"/>
	<rect x="-86.283" y="159.823" width="78.021" height="49.896"/>
	<rect x="-86.983" y="157.013" width="16.17" height="54.82"/>
	<rect x="20.358" y="-77.962" fill="#404040" width="15.033" height="15.029"/>
	<rect x="24.973" y="-73.352" width="5.807" height="5.806"/>
	<polygon fill="#2A2A29" points="22.83,-75.494 24.973,-73.352 30.778,-73.352 32.917,-75.494 	"/>
	<polygon fill="#474747" points="32.919,-75.494 30.778,-73.346 30.778,-67.542 32.919,-65.403 	"/>
	<polygon fill="#595959" points="32.917,-65.403 30.778,-67.542 24.971,-67.542 22.83,-65.403 	"/>
	<polygon fill="#373737" points="22.828,-65.403 24.971,-67.546 24.971,-73.352 22.828,-75.494 	"/>
	<rect x="35.389" y="-77.962" fill="#404040" width="15.027" height="15.029"/>
	<rect x="40" y="-73.352" width="5.803" height="5.806"/>
	<polygon fill="#2A2A29" points="37.855,-75.494 39.998,-73.352 45.807,-73.352 47.948,-75.494 	"/>
	<polygon fill="#474747" points="47.948,-75.494 45.807,-73.346 45.807,-67.542 47.948,-65.403 	"/>
	<polygon fill="#595959" points="47.944,-65.403 45.807,-67.542 39.998,-67.542 37.855,-65.403 	"/>
	<polygon fill="#373737" points="37.853,-65.403 39.998,-67.546 39.998,-73.352 37.853,-75.494 	"/>
	<rect x="50.51" y="-77.962" fill="#404040" width="15.035" height="15.029"/>
	<rect x="55.123" y="-73.352" width="5.809" height="5.806"/>
	<polygon fill="#2A2A29" points="52.983,-75.494 55.123,-73.352 60.93,-73.352 63.07,-75.494 	"/>
	<polygon fill="#474747" points="63.072,-75.494 60.93,-73.346 60.93,-67.542 63.072,-65.403 	"/>
	<polygon fill="#595959" points="63.07,-65.403 60.93,-67.542 55.121,-67.542 52.983,-65.403 	"/>
	<polygon fill="#373737" points="52.981,-65.403 55.121,-67.546 55.121,-73.352 52.981,-75.494 	"/>
	<rect x="65.542" y="-77.962" fill="#404040" width="15.027" height="15.029"/>
	<rect x="70.153" y="-73.352" width="5.803" height="5.806"/>
	<polygon fill="#2A2A29" points="68.01,-75.494 70.151,-73.352 75.958,-73.352 78.101,-75.494 	"/>
	<polygon fill="#474747" points="78.101,-75.494 75.958,-73.346 75.958,-67.542 78.101,-65.403 	"/>
	<polygon fill="#595959" points="78.097,-65.403 75.958,-67.542 70.151,-67.542 68.01,-65.403 	"/>
	<polygon fill="#373737" points="68.008,-65.403 70.151,-67.546 70.151,-73.352 68.008,-75.494 	"/>
	<rect x="80.569" y="-77.962" fill="#404040" width="15.033" height="15.029"/>
	<rect x="85.182" y="-73.352" width="5.803" height="5.806"/>
	<polygon fill="#2A2A29" points="83.039,-75.494 85.179,-73.352 90.989,-73.352 93.13,-75.494 	"/>
	<polygon fill="#474747" points="93.13,-75.494 90.989,-73.346 90.989,-67.542 93.13,-65.403 	"/>
	<polygon fill="#595959" points="93.128,-65.403 90.987,-67.542 85.177,-67.542 83.039,-65.403 	"/>
	<polygon fill="#373737" points="83.036,-65.403 85.177,-67.546 85.177,-73.352 83.036,-75.494 	"/>
	<rect x="95.597" y="-77.962" fill="#404040" width="15.034" height="15.029"/>
	<rect x="100.209" y="-73.352" width="5.807" height="5.806"/>
	<polygon fill="#2A2A29" points="98.068,-75.494 100.209,-73.352 106.018,-73.352 108.159,-75.494 	"/>
	<polygon fill="#474747" points="108.159,-75.494 106.018,-73.346 106.018,-67.542 108.159,-65.403 	"/>
	<polygon fill="#595959" points="108.156,-65.403 106.018,-67.542 100.207,-67.542 98.068,-65.403 	"/>
	<polygon fill="#373737" points="98.066,-65.403 100.207,-67.546 100.207,-73.352 98.066,-75.494 	"/>
	<rect x="140.95" y="208.427" fill="#404040" width="15.029" height="15.029"/>
	<rect x="145.563" y="213.04" width="5.802" height="5.804"/>
	<polygon fill="#2A2A29" points="143.419,210.897 145.558,213.036 151.369,213.036 153.508,210.897 	"/>
	<polygon fill="#474747" points="153.51,210.897 151.369,213.043 151.369,218.847 153.51,220.986 	"/>
	<polygon fill="#595959" points="153.508,220.986 151.369,218.847 145.558,218.847 143.419,220.986 	"/>
	<polygon fill="#373737" points="143.419,220.986 145.558,218.843 145.558,213.036 143.419,210.897 	"/>
	<rect x="95.729" y="208.427" fill="#404040" width="15.028" height="15.029"/>
	<rect x="100.34" y="213.04" width="5.807" height="5.804"/>
	<polygon fill="#2A2A29" points="98.193,210.897 100.335,213.036 106.143,213.036 108.283,210.897 	"/>
	<polygon fill="#474747" points="108.287,210.897 106.143,213.043 106.143,218.847 108.287,220.986 	"/>
	<polygon fill="#595959" points="108.283,220.986 106.143,218.847 100.335,218.847 98.193,220.986 	"/>
	<polygon fill="#373737" points="98.193,220.986 100.335,218.843 100.335,213.036 98.193,210.897 	"/>
	<rect x="80.653" y="208.427" fill="#404040" width="15.029" height="15.029"/>
	<rect x="85.263" y="213.04" width="5.808" height="5.804"/>
	<polygon fill="#2A2A29" points="83.118,210.897 85.263,213.036 91.069,213.036 93.209,210.897 	"/>
	<polygon fill="#474747" points="93.212,210.897 91.069,213.043 91.069,218.847 93.212,220.986 	"/>
	<polygon fill="#595959" points="93.209,220.986 91.069,218.847 85.263,218.847 83.118,220.986 	"/>
	<polygon fill="#373737" points="83.118,220.986 85.263,218.843 85.263,213.036 83.118,210.897 	"/>
	<rect x="125.879" y="208.427" fill="#404040" width="15.031" height="15.029"/>
	<rect x="130.49" y="213.04" width="5.81" height="5.804"/>
	<polygon fill="#2A2A29" points="128.348,210.897 130.486,213.036 136.297,213.036 138.434,210.897 	"/>
	<polygon fill="#474747" points="138.439,210.897 136.297,213.043 136.297,218.847 138.439,220.986 	"/>
	<polygon fill="#595959" points="138.434,220.986 136.297,218.847 130.486,218.847 128.348,220.986 	"/>
	<polygon fill="#373737" points="128.348,220.986 130.486,218.843 130.486,213.036 128.348,210.897 	"/>
	<rect x="110.807" y="208.427" fill="#404040" width="15.029" height="15.029"/>
	<rect x="115.416" y="213.04" width="5.809" height="5.804"/>
	<polygon fill="#2A2A29" points="113.271,210.897 115.413,213.036 121.221,213.036 123.362,210.897 	"/>
	<polygon fill="#474747" points="123.364,210.897 121.221,213.043 121.221,218.847 123.364,220.986 	"/>
	<polygon fill="#595959" points="123.362,220.986 121.221,218.847 115.413,218.847 113.271,220.986 	"/>
	<polygon fill="#373737" points="113.271,220.986 115.413,218.843 115.413,213.036 113.271,210.897 	"/>
	<rect x="155.978" y="208.427" fill="#404040" width="15.035" height="15.029"/>
	<rect x="160.591" y="213.04" width="5.803" height="5.804"/>
	<polygon fill="#2A2A29" points="158.45,210.897 160.589,213.036 166.396,213.036 168.537,210.897 	"/>
	<polygon fill="#474747" points="168.541,210.897 166.396,213.043 166.396,218.847 168.541,220.986 	"/>
	<polygon fill="#595959" points="168.537,220.986 166.396,218.847 160.585,218.847 158.45,220.986 	"/>
	<polygon fill="#373737" points="158.45,220.986 160.585,218.843 160.585,213.036 158.45,210.897 	"/>
	<rect x="171.009" y="208.427" fill="#404040" width="15.033" height="15.029"/>
	<rect x="175.62" y="213.04" width="5.81" height="5.804"/>
	<polygon fill="#2A2A29" points="173.478,210.897 175.616,213.036 181.43,213.036 183.569,210.897 	"/>
	<polygon fill="#474747" points="183.569,210.897 181.43,213.043 181.43,218.847 183.569,220.986 	"/>
	<polygon fill="#595959" points="183.569,220.986 181.43,218.847 175.616,218.847 173.478,220.986 	"/>
	<polygon fill="#373737" points="173.478,220.986 175.616,218.843 175.616,213.036 173.478,210.897 	"/>
	<rect x="186.036" y="208.427" fill="#404040" width="15.031" height="15.029"/>
	<rect x="190.647" y="213.04" width="5.806" height="5.804"/>
	<polygon fill="#2A2A29" points="188.502,210.897 190.647,213.036 196.456,213.036 198.596,210.897 	"/>
	<polygon fill="#474747" points="198.596,210.897 196.456,213.043 196.456,218.847 198.596,220.986 	"/>
	<polygon fill="#595959" points="198.596,220.986 196.452,218.847 190.647,218.847 188.502,220.986 	"/>
	<polygon fill="#373737" points="188.502,220.986 190.647,218.843 190.647,213.036 188.502,210.897 	"/>
	<rect x="216.316" y="208.427" fill="#404040" width="15.031" height="15.029"/>
	<rect x="220.928" y="213.04" width="5.802" height="5.804"/>
	<polygon fill="#2A2A29" points="218.788,210.897 220.926,213.036 226.736,213.036 228.875,210.897 	"/>
	<polygon fill="#474747" points="228.879,210.897 226.736,213.043 226.736,218.847 228.879,220.986 	"/>
	<polygon fill="#595959" points="228.875,220.986 226.734,218.847 220.926,218.847 218.788,220.986 	"/>
	<polygon fill="#373737" points="218.788,220.986 220.926,218.843 220.926,213.036 218.788,210.897 	"/>
	<rect x="231.347" y="208.427" fill="#404040" width="15.029" height="15.029"/>
	<rect x="235.957" y="213.04" width="5.808" height="5.804"/>
	<polygon fill="#2A2A29" points="233.821,210.897 235.957,213.036 241.767,213.036 243.908,210.897 	"/>
	<polygon fill="#474747" points="243.908,210.897 241.767,213.043 241.767,218.847 243.908,220.986 	"/>
	<polygon fill="#595959" points="243.905,220.986 241.763,218.847 235.953,218.847 233.821,220.986 	"/>
	<polygon fill="#373737" points="233.813,220.986 235.953,218.843 235.953,213.036 233.813,210.897 	"/>
	<rect x="246.376" y="208.427" fill="#404040" width="15.037" height="15.029"/>
	<rect x="250.987" y="213.04" width="5.808" height="5.804"/>
	<polygon fill="#2A2A29" points="248.842,210.897 250.985,213.036 256.79,213.036 258.933,210.897 	"/>
	<polygon fill="#474747" points="258.933,210.897 256.79,213.043 256.79,218.847 258.933,220.986 	"/>
	<polygon fill="#595959" points="258.933,220.986 256.79,218.847 250.985,218.847 248.842,220.986 	"/>
	<polygon fill="#373737" points="248.842,220.986 250.985,218.843 250.985,213.036 248.842,210.897 	"/>
	<rect x="261.405" y="208.427" fill="#404040" width="15.029" height="15.029"/>
	<rect x="266.018" y="213.04" width="5.802" height="5.804"/>
	<polygon fill="#2A2A29" points="263.872,210.897 266.014,213.036 271.823,213.036 273.963,210.897 	"/>
	<polygon fill="#474747" points="273.963,210.897 271.823,213.043 271.823,218.847 273.963,220.986 	"/>
	<polygon fill="#595959" points="273.963,220.986 271.822,218.847 266.014,218.847 263.872,220.986 	"/>
	<polygon fill="#373737" points="263.872,220.986 266.014,218.843 266.014,213.036 263.872,210.897 	"/>
	<rect x="276.432" y="208.427" fill="#404040" width="15.027" height="15.029"/>
	<rect x="281.041" y="213.04" width="5.803" height="5.804"/>
	<polygon fill="#2A2A29" points="278.898,210.897 281.041,213.036 286.851,213.036 288.987,210.897 	"/>
	<polygon fill="#474747" points="288.99,210.897 286.851,213.043 286.851,218.847 288.99,220.986 	"/>
	<polygon fill="#595959" points="288.987,220.986 286.846,218.847 281.041,218.847 278.898,220.986 	"/>
	<polygon fill="#373737" points="278.898,220.986 281.041,218.843 281.041,213.036 278.898,210.897 	"/>
	<rect x="291.459" y="208.427" fill="#404040" width="15.029" height="15.029"/>
	<rect x="296.073" y="213.04" width="5.803" height="5.804"/>
	<polygon fill="#2A2A29" points="293.929,210.897 296.066,213.036 301.88,213.036 304.016,210.897 	"/>
	<polygon fill="#474747" points="304.02,210.897 301.88,213.043 301.88,218.847 304.02,220.986 	"/>
	<polygon fill="#595959" points="304.016,220.986 301.875,218.847 296.066,218.847 293.929,220.986 	"/>
	<polygon fill="#373737" points="293.929,220.986 296.066,218.843 296.066,213.036 293.929,210.897 	"/>
	<rect x="110.631" y="-77.962" fill="#404040" width="15.029" height="15.029"/>
	<rect x="115.24" y="-73.352" width="5.806" height="5.806"/>
	<polygon fill="#2A2A29" points="113.095,-75.494 115.238,-73.352 121.045,-73.352 123.187,-75.494 	"/>
	<polygon fill="#474747" points="123.187,-75.494 121.045,-73.346 121.045,-67.542 123.187,-65.403 	"/>
	<polygon fill="#595959" points="123.187,-65.403 121.041,-67.542 115.238,-67.542 113.095,-65.403 	"/>
	<polygon fill="#373737" points="113.093,-65.403 115.238,-67.546 115.238,-73.352 113.093,-75.494 	"/>
	<rect x="125.656" y="-77.962" fill="#404040" width="15.033" height="15.029"/>
	<rect x="130.269" y="-73.352" width="5.802" height="5.806"/>
	<polygon fill="#2A2A29" points="128.125,-75.494 130.269,-73.352 136.074,-73.352 138.215,-75.494 	"/>
	<polygon fill="#474747" points="138.215,-75.494 136.074,-73.346 136.074,-67.542 138.215,-65.403 	"/>
	<polygon fill="#595959" points="138.215,-65.403 136.073,-67.542 130.265,-67.542 128.125,-65.403 	"/>
	<polygon fill="#373737" points="128.123,-65.403 130.265,-67.546 130.265,-73.352 128.123,-75.494 	"/>
	<rect x="140.685" y="-77.962" fill="#404040" width="15.029" height="15.029"/>
	<rect x="145.296" y="-73.352" width="5.806" height="5.806"/>
	<polygon fill="#2A2A29" points="143.157,-75.494 145.292,-73.352 151.106,-73.352 153.246,-75.494 	"/>
	<polygon fill="#474747" points="153.246,-75.494 151.106,-73.346 151.106,-67.542 153.246,-65.403 	"/>
	<polygon fill="#595959" points="153.241,-65.403 151.104,-67.542 145.292,-67.542 143.157,-65.403 	"/>
	<polygon fill="#373737" points="143.153,-65.403 145.292,-67.546 145.292,-73.352 143.153,-75.494 	"/>
	<rect x="155.712" y="-77.962" fill="#404040" width="15.036" height="15.029"/>
	<rect x="160.327" y="-73.352" width="5.806" height="5.806"/>
	<polygon fill="#2A2A29" points="158.184,-75.494 160.323,-73.352 166.135,-73.352 168.273,-75.494 	"/>
	<polygon fill="#474747" points="168.273,-75.494 166.135,-73.346 166.135,-67.542 168.273,-65.403 	"/>
	<polygon fill="#595959" points="168.271,-65.403 166.131,-67.542 160.323,-67.542 158.184,-65.403 	"/>
	<polygon fill="#373737" points="158.18,-65.403 160.323,-67.546 160.323,-73.352 158.18,-75.494 	"/>
	<rect x="186.169" y="-77.962" fill="#404040" width="15.037" height="15.029"/>
	<rect x="190.784" y="-73.352" width="5.803" height="5.806"/>
	<polygon fill="#2A2A29" points="188.64,-75.494 190.779,-73.352 196.587,-73.352 198.729,-75.494 	"/>
	<polygon fill="#474747" points="198.729,-75.494 196.587,-73.346 196.587,-67.542 198.729,-65.403 	"/>
	<polygon fill="#595959" points="198.729,-65.403 196.587,-67.542 190.779,-67.542 188.64,-65.403 	"/>
	<polygon fill="#373737" points="188.64,-65.403 190.779,-67.546 190.779,-73.352 188.64,-75.494 	"/>
	<rect x="201.202" y="-77.962" fill="#404040" width="15.024" height="15.029"/>
	<rect x="205.816" y="-73.352" width="5.803" height="5.806"/>
	<polygon fill="#2A2A29" points="203.666,-75.494 205.816,-73.352 211.618,-73.352 213.757,-75.494 	"/>
	<polygon fill="#474747" points="213.762,-75.494 211.618,-73.346 211.618,-67.542 213.762,-65.403 	"/>
	<polygon fill="#595959" points="213.757,-65.403 211.618,-67.542 205.81,-67.542 203.666,-65.403 	"/>
	<polygon fill="#373737" points="203.666,-65.403 205.81,-67.546 205.81,-73.352 203.666,-75.494 	"/>
	<rect x="216.225" y="-77.962" fill="#404040" width="15.036" height="15.029"/>
	<rect x="220.841" y="-73.352" width="5.803" height="5.806"/>
	<polygon fill="#2A2A29" points="218.698,-75.494 220.841,-73.352 226.646,-73.352 228.789,-75.494 	"/>
	<polygon fill="#474747" points="228.789,-75.494 226.646,-73.346 226.646,-67.542 228.789,-65.403 	"/>
	<polygon fill="#595959" points="228.784,-65.403 226.646,-67.542 220.837,-67.542 218.698,-65.403 	"/>
	<polygon fill="#373737" points="218.696,-65.403 220.837,-67.546 220.837,-73.352 218.696,-75.494 	"/>
	<rect x="231.256" y="-77.962" fill="#404040" width="15.031" height="15.029"/>
	<rect x="235.869" y="-73.352" width="5.806" height="5.806"/>
	<polygon fill="#2A2A29" points="233.727,-75.494 235.864,-73.352 241.677,-73.352 243.816,-75.494 	"/>
	<polygon fill="#474747" points="243.816,-75.494 241.677,-73.346 241.677,-67.542 243.816,-65.403 	"/>
	<polygon fill="#595959" points="243.816,-65.403 241.673,-67.542 235.864,-67.542 233.727,-65.403 	"/>
	<polygon fill="#373737" points="233.727,-65.403 235.864,-67.546 235.864,-73.352 233.727,-75.494 	"/>
	<rect x="246.285" y="-77.962" fill="#404040" width="15.033" height="15.029"/>
	<rect x="250.897" y="-73.352" width="5.808" height="5.806"/>
	<polygon fill="#2A2A29" points="248.756,-75.494 250.895,-73.352 256.704,-73.352 258.843,-75.494 	"/>
	<polygon fill="#474747" points="258.843,-75.494 256.704,-73.346 256.704,-67.542 258.843,-65.403 	"/>
	<polygon fill="#595959" points="258.843,-65.403 256.704,-67.542 250.895,-67.542 248.756,-65.403 	"/>
	<polygon fill="#373737" points="248.756,-65.403 250.895,-67.546 250.895,-73.352 248.756,-75.494 	"/>
	<rect x="261.315" y="-77.962" fill="#404040" width="15.033" height="15.029"/>
	<rect x="265.928" y="-73.352" width="5.801" height="5.806"/>
	<polygon fill="#2A2A29" points="263.783,-75.494 265.928,-73.352 271.732,-73.352 273.874,-75.494 	"/>
	<polygon fill="#474747" points="273.874,-75.494 271.732,-73.346 271.732,-67.542 273.874,-65.403 	"/>
	<polygon fill="#595959" points="273.874,-65.403 271.732,-67.542 265.928,-67.542 263.783,-65.403 	"/>
	<polygon fill="#373737" points="263.78,-65.403 265.928,-67.546 265.928,-73.352 263.78,-75.494 	"/>
	<rect x="276.342" y="-77.962" fill="#404040" width="15.031" height="15.029"/>
	<rect x="280.954" y="-73.352" width="5.802" height="5.806"/>
	<polygon fill="#2A2A29" points="278.815,-75.494 280.954,-73.352 286.76,-73.352 288.902,-75.494 	"/>
	<polygon fill="#474747" points="288.906,-75.494 286.76,-73.346 286.76,-67.542 288.906,-65.403 	"/>
	<polygon fill="#595959" points="288.902,-65.403 286.76,-67.542 280.95,-67.542 278.815,-65.403 	"/>
	<polygon fill="#373737" points="278.807,-65.403 280.95,-67.546 280.95,-73.352 278.807,-75.494 	"/>
	<rect x="291.371" y="-77.962" fill="#404040" width="15.035" height="15.029"/>
	<rect x="295.984" y="-73.352" width="5.808" height="5.806"/>
	<g>
		<polygon fill="#02809E" points="14.221,-49.273 14.221,-41.038 14.221,-34.042 14.221,-25.807 17.385,-22.645 25.621,-22.645 
			28.779,-25.807 28.779,-34.042 28.779,-41.038 28.779,-49.273 25.621,-52.436 17.385,-52.436 		"/>
		<polygon fill="#02809E" points="29.259,-49.273 29.259,-41.038 29.259,-34.042 29.259,-25.807 32.423,-22.645 40.653,-22.645 
			43.822,-25.807 43.822,-34.042 43.822,-41.038 43.822,-49.273 40.653,-52.436 32.423,-52.436 		"/>
		<polygon fill="#02809E" points="44.292,-49.273 44.292,-41.038 44.292,-34.042 44.292,-25.807 47.453,-22.645 55.692,-22.645 
			58.853,-25.807 58.853,-34.042 58.853,-41.038 58.853,-49.273 55.692,-52.436 47.453,-52.436 		"/>
	</g>
	<polygon fill="#2A2A29" points="293.843,-75.494 295.982,-73.352 301.794,-73.352 303.932,-75.494 	"/>
	<polygon fill="#474747" points="303.932,-75.494 301.794,-73.346 301.794,-67.542 303.932,-65.403 	"/>
	<polygon fill="#595959" points="303.929,-65.403 301.789,-67.542 295.982,-67.542 293.843,-65.403 	"/>
	<polygon fill="#373737" points="293.843,-65.403 295.982,-67.546 295.982,-73.352 293.843,-75.494 	"/>
	<g>
		<text transform="matrix(0 -1 1 0 32.0862 -36.21)" fill="#FFFFFF" font-family="'ArialMT'" font-size="10.4693">SCL</text>
		<text transform="matrix(0 -1 1 0 47.1604 -34.7056)" fill="#FFFFFF" font-family="'ArialMT'" font-size="10.4693">SDA</text>
		<text transform="matrix(0 -1 1 0 62.2371 -28.6777)" fill="#FFFFFF" font-family="'ArialMT'" font-size="10.4693">AREF</text>
		<text transform="matrix(0 -1 1 0 76.8933 -34.3354)" fill="#FFFFFF" font-family="'ArialMT'" font-size="10.4693">GND </text>
		<text transform="matrix(0 -1 1 0 106.9622 204.6167)" fill="#FFFFFF" font-family="'ArialMT'" font-size="10.4693">IOREF</text>
		<text transform="matrix(0 -1 1 0 122.0354 204.6167)" fill="#FFFFFF" font-family="'ArialMT'" font-size="10.4693">RESET</text>
		<text transform="matrix(0 -1 1 0 136.6926 204.6167)" fill="#FFFFFF" font-family="'ArialMT'" font-size="10.4693">3V3</text>
		<text transform="matrix(0 -1 1 0 121.8127 -10.8296)" fill="#FFFFFF" font-family="'ArialMT'" font-size="10.4693">PWM</text>
		<text transform="matrix(0 -1 1 0 137.094 -10.8296)" fill="#FFFFFF" font-family="'ArialMT'" font-size="10.4693">PWM</text>
		<text transform="matrix(0 -1 1 0 152.3821 -10.8296)" fill="#FFFFFF" font-family="'ArialMT'" font-size="10.4693">PWM</text>
		<text transform="matrix(1 0 0 1 94.6497 -10.7114)" fill="#FFFFFF" font-family="'ArialMT'" font-size="10.4693">L</text>
		<text transform="matrix(1 0 0 1 94.6497 14.4155)" fill="#FFFFFF" font-family="'ArialMT'" font-size="10.4693">TX</text>
		<text transform="matrix(1 0 0 1 94.6497 26.9785)" fill="#FFFFFF" font-family="'ArialMT'" font-size="10.4693">RX</text>
		<text transform="matrix(1 0 0 1 283.0256 21.2993)" fill="#FFFFFF" font-family="'ArialMT'" font-size="10.4693">ON</text>
		<text transform="matrix(1 0 0 1 293.1672 99.7231)" fill="#FFFFFF" font-family="'ArialMT'" font-size="10.4693">ICSP</text>
		<text transform="matrix(0 -1 1 0 213.6106 -10.8296)" fill="#FFFFFF" font-family="'ArialMT'" font-size="10.4693">PWM</text>
		<text transform="matrix(0 -1 1 0 228.5803 -10.8296)" fill="#FFFFFF" font-family="'ArialMT'" font-size="10.4693">PWM</text>
		<text transform="matrix(0 -1 1 0 258.5247 -10.8296)" fill="#FFFFFF" font-family="'ArialMT'" font-size="10.4693">PWM</text>
		<text transform="matrix(0 -1 1 0 288.9465 -30.7954)" fill="#FFFFFF" font-family="'ArialMT'" font-size="10.4693">TX</text>
		<text transform="matrix(0 -1 1 0 303.9163 -30.7954)" fill="#FFFFFF" font-family="'ArialMT'" font-size="10.4693">RX</text>
		<text transform="matrix(1 0 0 1 84.6155 -48.916)" fill="#FFFFFF" font-family="'ArialMT'" font-size="10.4693">3</text>
		<text transform="matrix(1 0 0 1 84.6155 -36.353)" fill="#FFFFFF" font-family="'ArialMT'" font-size="10.4693">1</text>
		<text transform="matrix(1 0 0 1 99.6428 -48.916)" fill="#FFFFFF" font-family="'ArialMT'" font-size="10.4693">2</text>
		<text transform="matrix(1 0 0 1 99.6428 -36.353)" fill="#FFFFFF" font-family="'ArialMT'" font-size="10.4693">1</text>
		<text transform="matrix(1 0 0 1 114.6692 -48.916)" fill="#FFFFFF" font-family="'ArialMT'" font-size="10.4693">1</text>
		<text transform="matrix(1 0 0 1 114.6692 -36.353)" fill="#FFFFFF" font-family="'ArialMT'" font-size="10.4693">1</text>
		<text transform="matrix(1 0 0 1 129.6946 -48.916)" fill="#FFFFFF" font-family="'ArialMT'" font-size="10.4693">0</text>
		<text transform="matrix(1 0 0 1 129.6946 -36.353)" fill="#FFFFFF" font-family="'ArialMT'" font-size="10.4693">1</text>
		<text transform="matrix(1 0 0 1 144.7239 -48.916)" fill="#FFFFFF" font-family="'ArialMT'" font-size="10.4693">9</text>
		<text transform="matrix(1 0 0 1 159.7493 -48.916)" fill="#FFFFFF" font-family="'ArialMT'" font-size="10.4693">8</text>
		<text transform="matrix(1 0 0 1 161.4846 -36.2114)" fill="#FFFFFF" font-family="'ArialMT'" font-size="10.4693">DIGITAL</text>
		<text transform="matrix(1 0 0 1 189.8987 -48.916)" fill="#FFFFFF" font-family="'ArialMT'" font-size="10.4693">7</text>
		<text transform="matrix(1 0 0 1 204.9407 -48.916)" fill="#FFFFFF" font-family="'ArialMT'" font-size="10.4693">6</text>
		<text transform="matrix(1 0 0 1 219.9836 -48.916)" fill="#FFFFFF" font-family="'ArialMT'" font-size="10.4693">5</text>
		<text transform="matrix(1 0 0 1 235.0247 -48.916)" fill="#FFFFFF" font-family="'ArialMT'" font-size="10.4693">4</text>
		<text transform="matrix(1 0 0 1 250.0686 -48.916)" fill="#FFFFFF" font-family="'ArialMT'" font-size="10.4693">3</text>
		<text transform="matrix(1 0 0 1 265.1125 -48.916)" fill="#FFFFFF" font-family="'ArialMT'" font-size="10.4693">2</text>
		<text transform="matrix(1 0 0 1 280.1536 -48.916)" fill="#FFFFFF" font-family="'ArialMT'" font-size="10.4693">1</text>
		<text transform="matrix(1 0 0 1 295.1956 -48.916)" fill="#FFFFFF" font-family="'ArialMT'" font-size="10.4693">0</text>
		
			<text transform="matrix(4.489659e-11 -1 1 4.489659e-11 302.5247 40.7065)" fill="#FFFFFF" font-family="'ArialMT'" font-size="10.4693">1</text>
		<text transform="matrix(1 0 0 1 139.8889 203.5356)" fill="#FFFFFF" font-family="'ArialMT'" font-size="10.4693">5V</text>
		<text transform="matrix(1 0 0 1 159.8323 203.5356)" fill="#FFFFFF" font-family="'ArialMT'" font-size="10.4693">Gnd</text>
		<text transform="matrix(1 0 0 1 150.3938 189.7661)" fill="#FFFFFF" font-family="'ArialMT'" font-size="10.4693">POWER</text>
		<text transform="matrix(1 0 0 1 156.1887 168.7349)" fill="#FFFFFF" font-family="'ArialMT'" font-size="10.4693">www.arduino.cc</text>
		<text transform="matrix(1 0 0 1 227.8674 189.3501)" fill="#FFFFFF" font-family="'ArialMT'" font-size="10.4693">ANALOG IN</text>
		<text transform="matrix(1 0 0 1 186.9934 203.5356)" fill="#FFFFFF" font-family="'ArialMT'" font-size="10.4693">Vin</text>
		<text transform="matrix(1 0 0 1 220.1907 203.5356)" fill="#FFFFFF" font-family="'ArialMT'" font-size="10.4693">0</text>
		<text transform="matrix(1 0 0 1 235.2581 203.5356)" fill="#FFFFFF" font-family="'ArialMT'" font-size="10.4693">1</text>
		<text transform="matrix(1 0 0 1 250.3313 203.5356)" fill="#FFFFFF" font-family="'ArialMT'" font-size="10.4693">2</text>
		<text transform="matrix(1 0 0 1 265.4006 203.5356)" fill="#FFFFFF" font-family="'ArialMT'" font-size="10.4693">3</text>
		<text transform="matrix(1 0 0 1 280.469 203.5356)" fill="#FFFFFF" font-family="'ArialMT'" font-size="10.4693">4</text>
		<text transform="matrix(1 0 0 1 295.5393 203.5356)" fill="#FFFFFF" font-family="'ArialMT'" font-size="10.4693">5</text>
		<text transform="matrix(1 0 0 1 125.175 21.4346)" fill="#FFFFFF" font-family="'ArialMT'" font-size="19.1366">Arduino   </text>
		<text transform="matrix(1 0 0 1 207.8547 21.7642)" fill="#FFFFFF" font-family="'ArialMT'" font-size="19.1366">UNO</text>
	</g>
	<rect x="20.982" y="5.103" fill="#02809E" width="30.573" height="28.659"/>
	<rect x="265.44" y="70.404" fill="#02809E" width="10.629" height="28.874"/>
</g>
<rect x="-59.893" y="53.024" fill="#02809E" width="42.521" height="40.416"/>
<path fill="none" stroke="#FFFFFF" stroke-width="0.75" stroke-dasharray="1" d="M256.015,14.044
	c0,6.168-4.999,11.167-11.167,11.167h-34.2c-6.168,0-11.167-5-11.167-11.167l0,0c0-6.167,4.999-11.167,11.167-11.167h34.2
	C251.018,2.877,256.015,7.877,256.015,14.044L256.015,14.044z"/>
</svg>
