<?xml version="1.0" encoding="utf-8"?>
<!-- Generator: Adobe Illustrator 15.0.0, SVG Export Plug-In . SVG Version: 6.00 Build 0)  -->
<!DOCTYPE svg PUBLIC "-//W3C//DTD SVG 1.1//EN" "http://www.w3.org/Graphics/SVG/1.1/DTD/svg11.dtd">
<svg version="1.1" id="Layer_1" xmlns="http://www.w3.org/2000/svg" xmlns:xlink="http://www.w3.org/1999/xlink" x="0px" y="0px"
	 width="15.457px" height="53.822px" viewBox="0 0 15.457 53.822" enable-background="new 0 0 15.457 53.822" xml:space="preserve">
<rect id="connector0pin" x="3.451" y="47.021" fill="none" width="2.152" height="6.799"/>
<rect id="connector1pin" x="10.651" y="47.021" fill="none" width="2.154" height="6.799"/>
<rect id="connector0terminal" x="3.451" y="53.418" fill="none" width="2.152" height="0.404"/>
<rect id="connector1terminal" x="10.652" y="53.418" fill="none" width="2.153" height="0.404"/>
<g id="breadboard">
	<rect x="3.451" y="19.379" fill="#8C8C8C" width="2.151" height="34.44"/>
	<path fill="#8C8C8C" d="M12.804,29.207c0-1.174-1.064-2.103-2.088-2.992c-0.416-0.367-1.199-1.001-1.199-1.425V19.32H7.355v5.78
		c0,1.059,0.948,1.879,1.947,2.748c0.443,0.376,1.348,1.25,1.348,1.771c0,0.208,0.004,24.204,0.004,24.204h2.152L12.804,29.207z"/>
	<g id="g12">
		<path id="path14" opacity="0.3" fill="#00B33B" enable-background="new    " d="M14.173,13.001V7.088
			C14.173,3.175,11.005,0,7.088,0C3.175,0,0,3.169,0,7.088v13.649c1.474,1.65,4.097,2.753,7.088,2.753
			c4.619,0,8.369-2.618,8.369-5.859v-1.524C15.456,14.964,14.982,13.904,14.173,13.001z"/>
		<path id="path16" fill="#E6E6E6" fill-opacity="0" d="M14.173,13.001V7.088C14.173,3.175,11.005,0,7.088,0
			C3.175,0,0,3.169,0,7.088v13.649c1.474,1.65,4.097,2.753,7.088,2.753c4.619,0,8.369-2.618,8.369-5.859v-1.524
			C15.456,14.964,14.982,13.904,14.173,13.001z"/>
		<path id="path18" opacity="0.9" fill="#D1D1D1" enable-background="new    " d="M14.173,13.001v3.105
			c0,2.738-3.166,4.965-7.085,4.965C3.175,21.072,0,18.853,0,16.107v3.105v1.523c1.474,1.652,4.097,2.753,7.088,2.753
			c4.619,0,8.369-2.618,8.369-5.858v-1.523C15.456,14.964,14.982,13.904,14.173,13.001z"/>
		<path id="path20" opacity="0.7" fill="#00B33B" enable-background="new    " d="M14.173,13.001v3.105
			c0,2.738-3.166,4.965-7.085,4.965C3.175,21.072,0,18.853,0,16.107v3.105v1.523c1.474,1.652,4.097,2.753,7.088,2.753
			c4.619,0,8.369-2.618,8.369-5.858v-1.523C15.456,14.964,14.982,13.904,14.173,13.001z"/>
		<path id="path22" opacity="0.25" enable-background="new    " d="M14.173,13.001v3.105c0,2.738-3.166,4.965-7.085,4.965
			C3.175,21.072,0,18.853,0,16.107v3.105c1.474,1.649,4.097,2.752,7.088,2.752c4.619,0,8.369-2.618,8.369-5.858
			C15.456,14.964,14.982,13.904,14.173,13.001z"/>
		
			<ellipse id="ellipse24" opacity="0.25" fill="#E6E6E6" enable-background="new    " cx="7.088" cy="16.107" rx="7.087" ry="4.961"/>
		
			<ellipse id="ellipse26" opacity="0.25" fill="#00B33B" enable-background="new    " cx="7.088" cy="16.107" rx="7.087" ry="4.961"/>
		<polygon id="polygon28" fill="#666666" points="2.203,9.648 2.203,16.107 3.196,16.107 3.196,13.095 6.016,13.095 10.012,8.805 
			3.407,8.805 		"/>
		<polygon id="polygon30" fill="#666666" points="10.779,8.524 11.214,9.033 7.412,13.095 11.06,13.095 11.06,16.107 11.974,16.107 
			11.974,8.524 		"/>
		<path id="path32" opacity="0.65" fill="#00B33B" enable-background="new    " d="M14.173,13.001V7.088
			C14.173,3.175,11.005,0,7.088,0C3.175,0,0,3.169,0,7.088v13.649c1.474,1.65,4.097,2.753,7.088,2.753
			c4.619,0,8.369-2.618,8.369-5.859v-1.524C15.456,14.964,14.982,13.904,14.173,13.001z"/>
		<path id="path34" opacity="0.5" fill="#FFFFFF" enable-background="new    " d="M10.388,3.754l1.437-0.273
			c-0.842-1.132-2.083-1.958-3.542-2.238l0.254,1.08C9.3,2.593,9.944,3.103,10.388,3.754z"/>
		<path id="path36" opacity="0.5" fill="#FFFFFF" enable-background="new    " d="M0.768,19.926v1.52
			c0.649,0.529,1.434,0.977,2.308,1.317v-1.525C2.197,20.902,1.419,20.456,0.768,19.926z"/>
		<path id="path38" opacity="0.5" fill="#FFFFFF" enable-background="new    " d="M11.073,20.209c-0.255,0.123-0.53,0.23-0.806,0.33
			c-0.059,0.02-0.117,0.04-0.178,0.059c-0.564,0.179-1.161,0.318-1.795,0.395c-0.075,0.009-0.151,0.019-0.225,0.02
			c-0.32,0.03-0.644,0.059-0.971,0.059c-0.148,0-0.307-0.016-0.472-0.024c-1.2-0.057-2.331-0.314-3.297-0.739v-8.39V7.092
			c0-1.471,0.848-2.729,2.074-3.35L5.381,3.69L4.133,2.177c-1.669,1.003-2.79,2.822-2.79,4.912v11.905
			c-0.05-0.05-0.309-0.309-0.48-0.53l-0.308,0.688c1.401,1.482,3.809,2.462,6.543,2.462c1.68,0,3.237-0.373,4.511-1.002
			l-0.526-0.409C11.073,20.209,11.073,20.209,11.073,20.209z"/>
	</g>
</g>
</svg>
